<svg width="333" height="132" viewBox="0 0 333 132" fill="none" xmlns="http://www.w3.org/2000/svg">
<path d="M287.04 57.1C292.083 62.1318 298.916 64.9577 306.04 64.9577C313.164 64.9577 319.997 62.1318 325.04 57.1L306.04 38.1L287.04 57.1Z" fill="#F6B057"/>
<path d="M287.04 19.05C284.541 21.5481 282.559 24.514 281.206 27.7784C279.853 31.0427 279.157 34.5416 279.157 38.075C279.157 41.6085 279.853 45.1074 281.206 48.3717C282.559 51.6361 284.541 54.602 287.04 57.1001L306.04 38.1001L287.04 19.05Z" fill="#A8BBC6"/>
<path d="M306.08 38.06C308.579 35.5611 310.562 32.5944 311.915 29.3292C313.267 26.064 313.964 22.5643 313.964 19.03C313.964 15.4957 313.267 11.996 311.915 8.73084C310.562 5.46565 308.579 2.49889 306.08 0L287.08 19L306.08 38.06Z" fill="#45525B"/>
<path d="M325.11 57.09C327.609 54.5911 329.592 51.6244 330.945 48.3592C332.297 45.094 332.994 41.5943 332.994 38.06C332.994 34.5257 332.297 31.0261 330.945 27.7609C329.592 24.4957 327.609 21.5289 325.11 19.03L306.11 38.03L325.11 57.09Z" fill="#F47E20"/>
<path d="M54.4073 123.707V125.71H42.7081V109.589H54.0848V111.593H45.0111V116.544H53.0946V118.502H45.0111V123.707H54.4073ZM69.1713 108.622V125.71H67.0526V123.776C66.5613 124.451 65.9395 124.966 65.1872 125.319C64.4349 125.672 63.6058 125.848 62.7 125.848C61.5178 125.848 60.4584 125.587 59.5218 125.065C58.5853 124.543 57.8483 123.814 57.311 122.878C56.789 121.926 56.528 120.836 56.528 119.607C56.528 118.379 56.789 117.297 57.311 116.36C57.8483 115.424 58.5853 114.694 59.5218 114.172C60.4584 113.65 61.5178 113.389 62.7 113.389C63.5751 113.389 64.3811 113.558 65.1181 113.896C65.855 114.218 66.4692 114.702 66.9605 115.347V108.622H69.1713ZM62.8842 123.914C63.6519 123.914 64.3504 123.737 64.9799 123.384C65.6094 123.016 66.1007 122.509 66.4538 121.864C66.8069 121.204 66.9835 120.452 66.9835 119.607C66.9835 118.763 66.8069 118.018 66.4538 117.373C66.1007 116.713 65.6094 116.207 64.9799 115.853C64.3504 115.5 63.6519 115.324 62.8842 115.324C62.1012 115.324 61.3949 115.5 60.7655 115.853C60.1513 116.207 59.66 116.713 59.2916 117.373C58.9384 118.018 58.7619 118.763 58.7619 119.607C58.7619 120.452 58.9384 121.204 59.2916 121.864C59.66 122.509 60.1513 123.016 60.7655 123.384C61.3949 123.737 62.1012 123.914 62.8842 123.914ZM84.7312 113.504V125.71H82.6355V123.868C82.1903 124.497 81.5992 124.989 80.8622 125.342C80.1406 125.679 79.3499 125.848 78.4901 125.848C76.8627 125.848 75.5807 125.403 74.6442 124.513C73.7076 123.607 73.2393 122.279 73.2393 120.528V113.504H75.4502V120.275C75.4502 121.457 75.7342 122.355 76.3023 122.97C76.8704 123.568 77.6841 123.868 78.7435 123.868C79.9103 123.868 80.8315 123.515 81.507 122.808C82.1826 122.102 82.5204 121.104 82.5204 119.815V113.504H84.7312ZM94.26 125.848C93.0164 125.848 91.9033 125.58 90.9207 125.042C89.9534 124.505 89.1934 123.768 88.6407 122.831C88.088 121.88 87.8116 120.805 87.8116 119.607C87.8116 118.41 88.088 117.343 88.6407 116.406C89.1934 115.454 89.9534 114.717 90.9207 114.195C91.9033 113.658 93.0164 113.389 94.26 113.389C95.3654 113.389 96.348 113.612 97.2078 114.057C98.0829 114.502 98.7585 115.147 99.2344 115.992L97.5532 117.074C97.1694 116.491 96.6935 116.053 96.1254 115.761C95.5573 115.47 94.9278 115.324 94.2369 115.324C93.4386 115.324 92.717 115.5 92.0721 115.853C91.4427 116.207 90.9437 116.713 90.5752 117.373C90.2221 118.018 90.0455 118.763 90.0455 119.607C90.0455 120.467 90.2221 121.227 90.5752 121.887C90.9437 122.532 91.4427 123.031 92.0721 123.384C92.717 123.737 93.4386 123.914 94.2369 123.914C94.9278 123.914 95.5573 123.768 96.1254 123.476C96.6935 123.185 97.1694 122.747 97.5532 122.164L99.2344 123.223C98.7585 124.067 98.0829 124.72 97.2078 125.18C96.348 125.626 95.3654 125.848 94.26 125.848ZM106.542 113.389C108.23 113.389 109.52 113.804 110.411 114.633C111.316 115.462 111.769 116.698 111.769 118.341V125.71H109.674V124.098C109.305 124.666 108.775 125.104 108.085 125.411C107.409 125.702 106.603 125.848 105.666 125.848C104.3 125.848 103.202 125.518 102.373 124.858C101.559 124.198 101.153 123.33 101.153 122.256C101.153 121.181 101.544 120.321 102.327 119.676C103.11 119.016 104.354 118.686 106.058 118.686H109.558V118.249C109.558 117.297 109.282 116.567 108.729 116.061C108.177 115.554 107.363 115.301 106.288 115.301C105.567 115.301 104.86 115.424 104.169 115.669C103.479 115.899 102.895 116.214 102.419 116.613L101.498 114.955C102.127 114.449 102.88 114.065 103.755 113.804C104.63 113.527 105.559 113.389 106.542 113.389ZM106.035 124.144C106.879 124.144 107.609 123.96 108.223 123.591C108.837 123.208 109.282 122.67 109.558 121.979V120.275H106.15C104.277 120.275 103.34 120.905 103.34 122.164C103.34 122.778 103.578 123.261 104.054 123.614C104.53 123.968 105.19 124.144 106.035 124.144ZM121.248 125.848C120.004 125.848 118.891 125.58 117.909 125.042C116.941 124.505 116.181 123.768 115.629 122.831C115.076 121.88 114.8 120.805 114.8 119.607C114.8 118.41 115.076 117.343 115.629 116.406C116.181 115.454 116.941 114.717 117.909 114.195C118.891 113.658 120.004 113.389 121.248 113.389C122.353 113.389 123.336 113.612 124.196 114.057C125.071 114.502 125.747 115.147 126.222 115.992L124.541 117.074C124.157 116.491 123.682 116.053 123.113 115.761C122.545 115.47 121.916 115.324 121.225 115.324C120.427 115.324 119.705 115.5 119.06 115.853C118.431 116.207 117.932 116.713 117.563 117.373C117.21 118.018 117.034 118.763 117.034 119.607C117.034 120.467 117.21 121.227 117.563 121.887C117.932 122.532 118.431 123.031 119.06 123.384C119.705 123.737 120.427 123.914 121.225 123.914C121.916 123.914 122.545 123.768 123.113 123.476C123.682 123.185 124.157 122.747 124.541 122.164L126.222 123.223C125.747 124.067 125.071 124.72 124.196 125.18C123.336 125.626 122.353 125.848 121.248 125.848ZM120.166 130.869C119.367 130.869 118.684 130.7 118.116 130.362L118.6 129.234C119.06 129.495 119.582 129.625 120.166 129.625C121.025 129.625 121.455 129.318 121.455 128.704C121.455 128.428 121.348 128.205 121.133 128.036C120.918 127.883 120.588 127.806 120.143 127.806H119.521L120.097 125.549H121.363L121.018 126.862C121.663 126.923 122.154 127.123 122.492 127.46C122.845 127.814 123.021 128.251 123.021 128.773C123.021 129.418 122.76 129.925 122.238 130.293C121.716 130.677 121.025 130.869 120.166 130.869ZM133.53 113.389C135.218 113.389 136.508 113.804 137.399 114.633C138.304 115.462 138.757 116.698 138.757 118.341V125.71H136.662V124.098C136.293 124.666 135.763 125.104 135.073 125.411C134.397 125.702 133.591 125.848 132.654 125.848C131.288 125.848 130.19 125.518 129.361 124.858C128.547 124.198 128.141 123.33 128.141 122.256C128.141 121.181 128.532 120.321 129.315 119.676C130.098 119.016 131.342 118.686 133.046 118.686H136.546V118.249C136.546 117.297 136.27 116.567 135.717 116.061C135.165 115.554 134.351 115.301 133.276 115.301C132.555 115.301 131.848 115.424 131.158 115.669C130.467 115.899 129.883 116.214 129.407 116.613L128.486 114.955C129.116 114.449 129.868 114.065 130.743 113.804C131.618 113.527 132.547 113.389 133.53 113.389ZM133.023 124.144C133.867 124.144 134.597 123.96 135.211 123.591C135.825 123.208 136.27 122.67 136.546 121.979V120.275H133.138C131.265 120.275 130.328 120.905 130.328 122.164C130.328 122.778 130.566 123.261 131.042 123.614C131.518 123.968 132.178 124.144 133.023 124.144ZM135.303 111.662C134.934 111.662 134.612 111.585 134.336 111.432C134.075 111.278 133.745 111.048 133.345 110.741C133.115 110.526 132.915 110.372 132.747 110.28C132.578 110.173 132.409 110.119 132.24 110.119C131.902 110.119 131.626 110.249 131.411 110.51C131.196 110.756 131.081 111.102 131.065 111.547H129.822C129.852 110.687 130.067 110.004 130.467 109.497C130.881 108.991 131.419 108.737 132.079 108.737C132.447 108.737 132.77 108.822 133.046 108.991C133.338 109.144 133.668 109.374 134.036 109.681C134.297 109.896 134.505 110.058 134.658 110.165C134.812 110.257 134.973 110.303 135.142 110.303C135.479 110.303 135.756 110.18 135.971 109.935C136.186 109.689 136.301 109.351 136.316 108.921H137.56C137.529 109.751 137.306 110.418 136.892 110.925C136.493 111.416 135.963 111.662 135.303 111.662ZM148.144 125.848C146.931 125.848 145.841 125.58 144.874 125.042C143.906 124.505 143.147 123.768 142.594 122.831C142.056 121.88 141.788 120.805 141.788 119.607C141.788 118.41 142.056 117.343 142.594 116.406C143.147 115.454 143.906 114.717 144.874 114.195C145.841 113.658 146.931 113.389 148.144 113.389C149.357 113.389 150.439 113.658 151.391 114.195C152.358 114.717 153.111 115.454 153.648 116.406C154.201 117.343 154.477 118.41 154.477 119.607C154.477 120.805 154.201 121.88 153.648 122.831C153.111 123.768 152.358 124.505 151.391 125.042C150.439 125.58 149.357 125.848 148.144 125.848ZM148.144 123.914C148.927 123.914 149.626 123.737 150.24 123.384C150.869 123.016 151.36 122.509 151.714 121.864C152.067 121.204 152.243 120.452 152.243 119.607C152.243 118.763 152.067 118.018 151.714 117.373C151.36 116.713 150.869 116.207 150.24 115.853C149.626 115.5 148.927 115.324 148.144 115.324C147.361 115.324 146.655 115.5 146.025 115.853C145.411 116.207 144.92 116.713 144.551 117.373C144.198 118.018 144.022 118.763 144.022 119.607C144.022 120.452 144.198 121.204 144.551 121.864C144.92 122.509 145.411 123.016 146.025 123.384C146.655 123.737 147.361 123.914 148.144 123.914ZM175.234 113.504V130.178H173.024V123.868C172.517 124.513 171.895 125.004 171.158 125.342C170.437 125.679 169.638 125.848 168.763 125.848C167.581 125.848 166.521 125.587 165.585 125.065C164.648 124.543 163.911 123.814 163.374 122.878C162.852 121.926 162.591 120.836 162.591 119.607C162.591 118.379 162.852 117.297 163.374 116.36C163.911 115.424 164.648 114.694 165.585 114.172C166.521 113.65 167.581 113.389 168.763 113.389C169.669 113.389 170.498 113.566 171.25 113.919C172.003 114.257 172.624 114.763 173.116 115.439V113.504H175.234ZM168.947 123.914C169.715 123.914 170.414 123.737 171.043 123.384C171.672 123.016 172.164 122.509 172.517 121.864C172.87 121.204 173.047 120.452 173.047 119.607C173.047 118.763 172.862 118.018 172.494 117.373C172.141 116.729 171.649 116.23 171.02 115.876C170.406 115.508 169.715 115.324 168.947 115.324C168.164 115.324 167.458 115.5 166.829 115.853C166.214 116.207 165.723 116.713 165.355 117.373C165.002 118.018 164.825 118.763 164.825 119.607C164.825 120.452 165.002 121.204 165.355 121.864C165.723 122.509 166.214 123.016 166.829 123.384C167.458 123.737 168.164 123.914 168.947 123.914ZM190.794 113.504V125.71H188.699V123.868C188.253 124.497 187.662 124.989 186.925 125.342C186.204 125.679 185.413 125.848 184.553 125.848C182.926 125.848 181.644 125.403 180.707 124.513C179.771 123.607 179.302 122.279 179.302 120.528V113.504H181.513V120.275C181.513 121.457 181.797 122.355 182.365 122.97C182.933 123.568 183.747 123.868 184.807 123.868C185.973 123.868 186.895 123.515 187.57 122.808C188.246 122.102 188.583 121.104 188.583 119.815V113.504H190.794ZM206.034 119.676C206.034 119.845 206.019 120.068 205.988 120.344H196.086C196.224 121.419 196.692 122.286 197.49 122.947C198.304 123.591 199.31 123.914 200.507 123.914C201.966 123.914 203.14 123.423 204.031 122.44L205.251 123.868C204.699 124.513 204.008 125.004 203.179 125.342C202.365 125.679 201.452 125.848 200.438 125.848C199.149 125.848 198.005 125.587 197.007 125.065C196.009 124.528 195.233 123.783 194.681 122.831C194.143 121.88 193.875 120.805 193.875 119.607C193.875 118.425 194.136 117.358 194.658 116.406C195.195 115.454 195.924 114.717 196.846 114.195C197.782 113.658 198.834 113.389 200.001 113.389C201.167 113.389 202.204 113.658 203.11 114.195C204.031 114.717 204.745 115.454 205.251 116.406C205.773 117.358 206.034 118.448 206.034 119.676ZM200.001 115.255C198.941 115.255 198.051 115.577 197.329 116.222C196.623 116.867 196.208 117.711 196.086 118.755H203.916C203.793 117.727 203.371 116.89 202.649 116.245C201.943 115.585 201.06 115.255 200.001 115.255ZM217.408 115.554C217.792 114.848 218.36 114.31 219.112 113.942C219.864 113.573 220.778 113.389 221.853 113.389V115.531C221.73 115.516 221.561 115.508 221.346 115.508C220.148 115.508 219.204 115.869 218.513 116.59C217.838 117.297 217.5 118.31 217.5 119.63V125.71H215.289V113.504H217.408V115.554ZM235.496 119.676C235.496 119.845 235.481 120.068 235.45 120.344H225.548C225.686 121.419 226.154 122.286 226.952 122.947C227.766 123.591 228.772 123.914 229.969 123.914C231.428 123.914 232.602 123.423 233.493 122.44L234.713 123.868C234.161 124.513 233.47 125.004 232.641 125.342C231.827 125.679 230.913 125.848 229.9 125.848C228.61 125.848 227.467 125.587 226.469 125.065C225.471 124.528 224.695 123.783 224.143 122.831C223.605 121.88 223.337 120.805 223.337 119.607C223.337 118.425 223.598 117.358 224.12 116.406C224.657 115.454 225.386 114.717 226.308 114.195C227.244 113.658 228.296 113.389 229.463 113.389C230.629 113.389 231.666 113.658 232.572 114.195C233.493 114.717 234.207 115.454 234.713 116.406C235.235 117.358 235.496 118.448 235.496 119.676ZM229.463 115.255C228.403 115.255 227.513 115.577 226.791 116.222C226.085 116.867 225.67 117.711 225.548 118.755H233.378C233.255 117.727 232.833 116.89 232.111 116.245C231.405 115.585 230.522 115.255 229.463 115.255ZM238.566 113.504H240.777V125.71H238.566V113.504ZM239.672 111.155C239.242 111.155 238.881 111.017 238.589 110.741C238.313 110.464 238.175 110.127 238.175 109.727C238.175 109.328 238.313 108.991 238.589 108.714C238.881 108.422 239.242 108.277 239.672 108.277C240.102 108.277 240.455 108.415 240.731 108.691C241.023 108.952 241.169 109.282 241.169 109.681C241.169 110.096 241.023 110.449 240.731 110.741C240.455 111.017 240.102 111.155 239.672 111.155ZM251.516 113.389C253.067 113.389 254.295 113.842 255.201 114.748C256.122 115.638 256.583 116.951 256.583 118.686V125.71H254.372V118.939C254.372 117.757 254.088 116.867 253.52 116.268C252.952 115.669 252.138 115.37 251.078 115.37C249.881 115.37 248.937 115.723 248.246 116.429C247.555 117.12 247.209 118.118 247.209 119.423V125.71H244.999V113.504H247.117V115.347C247.563 114.717 248.161 114.234 248.914 113.896C249.681 113.558 250.549 113.389 251.516 113.389ZM271.25 113.504L265.907 125.71H263.65L258.307 113.504H260.61L264.802 123.292L269.085 113.504H271.25ZM284.007 119.676C284.007 119.845 283.992 120.068 283.961 120.344H274.059C274.197 121.419 274.665 122.286 275.463 122.947C276.277 123.591 277.283 123.914 278.48 123.914C279.939 123.914 281.113 123.423 282.004 122.44L283.224 123.868C282.672 124.513 281.981 125.004 281.152 125.342C280.338 125.679 279.425 125.848 278.411 125.848C277.122 125.848 275.978 125.587 274.98 125.065C273.982 124.528 273.206 123.783 272.654 122.831C272.116 121.88 271.848 120.805 271.848 119.607C271.848 118.425 272.109 117.358 272.631 116.406C273.168 115.454 273.897 114.717 274.819 114.195C275.755 113.658 276.807 113.389 277.974 113.389C279.14 113.389 280.177 113.658 281.083 114.195C282.004 114.717 282.718 115.454 283.224 116.406C283.746 117.358 284.007 118.448 284.007 119.676ZM277.974 115.255C276.914 115.255 276.024 115.577 275.302 116.222C274.596 116.867 274.181 117.711 274.059 118.755H281.889C281.766 117.727 281.344 116.89 280.622 116.245C279.916 115.585 279.033 115.255 277.974 115.255ZM293.595 113.389C295.146 113.389 296.374 113.842 297.28 114.748C298.201 115.638 298.661 116.951 298.661 118.686V125.71H296.451V118.939C296.451 117.757 296.167 116.867 295.598 116.268C295.03 115.669 294.217 115.37 293.157 115.37C291.96 115.37 291.016 115.723 290.325 116.429C289.634 117.12 289.288 118.118 289.288 119.423V125.71H287.077V113.504H289.196V115.347C289.641 114.717 290.24 114.234 290.992 113.896C291.76 113.558 292.628 113.389 293.595 113.389ZM309.616 124.996C309.293 125.273 308.894 125.488 308.418 125.641C307.942 125.779 307.451 125.848 306.944 125.848C305.716 125.848 304.764 125.518 304.089 124.858C303.413 124.198 303.075 123.254 303.075 122.025V115.324H301.003V113.504H303.075V110.833H305.286V113.504H308.787V115.324H305.286V121.933C305.286 122.593 305.447 123.1 305.77 123.453C306.108 123.806 306.584 123.983 307.198 123.983C307.873 123.983 308.449 123.791 308.925 123.407L309.616 124.996ZM316.734 113.389C318.422 113.389 319.712 113.804 320.603 114.633C321.508 115.462 321.961 116.698 321.961 118.341V125.71H319.866V124.098C319.497 124.666 318.967 125.104 318.277 125.411C317.601 125.702 316.795 125.848 315.858 125.848C314.492 125.848 313.394 125.518 312.565 124.858C311.751 124.198 311.345 123.33 311.345 122.256C311.345 121.181 311.736 120.321 312.519 119.676C313.302 119.016 314.546 118.686 316.25 118.686H319.75V118.249C319.75 117.297 319.474 116.567 318.921 116.061C318.369 115.554 317.555 115.301 316.48 115.301C315.759 115.301 315.052 115.424 314.361 115.669C313.671 115.899 313.087 116.214 312.611 116.613L311.69 114.955C312.319 114.449 313.072 114.065 313.947 113.804C314.822 113.527 315.751 113.389 316.734 113.389ZM316.227 124.144C317.071 124.144 317.801 123.96 318.415 123.591C319.029 123.208 319.474 122.67 319.75 121.979V120.275H316.342C314.469 120.275 313.532 120.905 313.532 122.164C313.532 122.778 313.77 123.261 314.246 123.614C314.722 123.968 315.382 124.144 316.227 124.144Z" fill="#FE7E02"/>
<path d="M0 45.17H11.82V86.55H37.39V96.17H0V45.17Z" fill="#45525B"/>
<path d="M73.43 60.72C76.69 63.6067 78.3167 67.9667 78.31 73.8V96.17H67.68V91.28C65.54 94.9333 61.54 96.7567 55.68 96.75C52.9899 96.8143 50.318 96.2922 47.85 95.22C45.7892 94.3255 44.0293 92.8571 42.78 90.99C41.6098 89.1659 41.0045 87.0369 41.04 84.87C40.9755 83.212 41.3161 81.5633 42.0322 80.0665C42.7484 78.5697 43.8185 77.2701 45.15 76.28C47.9033 74.1933 52.14 73.1467 57.86 73.14H66.86C66.9248 72.0808 66.7559 71.0202 66.3654 70.0335C65.9749 69.0468 65.3722 68.158 64.6 67.43C63.09 66.09 60.84 65.43 57.82 65.43C55.7298 65.434 53.6537 65.7715 51.67 66.43C49.8101 66.9989 48.0686 67.9001 46.53 69.09L42.45 61.14C44.7933 59.5426 47.3949 58.3619 50.14 57.65C53.1395 56.8204 56.2379 56.4032 59.35 56.41C65.4833 56.3967 70.1767 57.8333 73.43 60.72ZM63.74 87.72C65.255 86.8147 66.3942 85.3951 66.95 83.72V79.72H59.15C54.4833 79.72 52.15 81.25 52.15 84.31C52.1273 84.9831 52.2716 85.6513 52.57 86.255C52.8684 86.8587 53.3116 87.3792 53.86 87.77C55.2472 88.6934 56.8962 89.1425 58.56 89.05C60.3762 89.0918 62.1686 88.6316 63.74 87.72Z" fill="#45525B"/>
<path d="M121.69 58.9C124.637 60.5578 127.062 63.0067 128.69 65.97C130.36 69.254 131.23 72.886 131.23 76.57C131.23 80.254 130.36 83.886 128.69 87.17C127.059 90.1314 124.635 92.5796 121.69 94.24C118.651 95.9261 115.225 96.7912 111.75 96.75C106.357 96.75 102.253 95.05 99.44 91.65V96.17H88.58V42.11H99.95V61.11C102.81 57.9633 106.743 56.3867 111.75 56.38C115.226 56.3419 118.652 57.2104 121.69 58.9ZM116.96 84.47C118.771 82.2336 119.76 79.4429 119.76 76.565C119.76 73.6871 118.771 70.8964 116.96 68.66C115.05 66.7699 112.472 65.7098 109.785 65.7098C107.098 65.7098 104.52 66.7699 102.61 68.66C100.792 70.8932 99.7989 73.6851 99.7989 76.565C99.7989 79.4449 100.792 82.2367 102.61 84.47C104.52 86.36 107.098 87.4202 109.785 87.4202C112.472 87.4202 115.05 86.36 116.96 84.47Z" fill="#45525B"/>
<path d="M177.02 79.77H147.37C147.847 82.1055 149.204 84.168 151.16 85.53C153.353 86.9975 155.953 87.7359 158.59 87.64C160.441 87.6743 162.282 87.3657 164.02 86.73C165.67 86.0794 167.171 85.0995 168.43 83.85L174.43 90.41C170.77 94.6166 165.393 96.72 158.3 96.72C154.24 96.8027 150.218 95.9147 146.57 94.13C143.317 92.5388 140.586 90.0511 138.7 86.96C136.835 83.8085 135.879 80.2017 135.94 76.54C135.887 72.8959 136.831 69.3066 138.67 66.16C140.453 63.1073 143.049 60.6109 146.17 58.95C149.427 57.2667 153.036 56.3791 156.702 56.36C160.368 56.3408 163.986 57.1907 167.26 58.84C170.331 60.4543 172.873 62.9193 174.58 65.94C176.414 69.231 177.333 72.9535 177.24 76.72C177.24 76.86 177.17 77.88 177.02 79.77ZM150.43 67.17C148.645 68.695 147.502 70.838 147.23 73.17H166.53C166.234 70.8655 165.094 68.7527 163.33 67.24C161.535 65.7446 159.256 64.9553 156.92 65.02C154.568 64.9325 152.264 65.6959 150.43 67.17Z" fill="#45525B"/>
<path d="M220.41 60.72C223.39 63.6267 224.883 67.96 224.89 73.72V96.16H213.52V75.48C213.52 72.3733 212.853 70.04 211.52 68.48C210.764 67.689 209.844 67.0732 208.825 66.6758C207.806 66.2785 206.712 66.1092 205.62 66.18C204.356 66.1197 203.093 66.3253 201.913 66.7835C200.733 67.2416 199.662 67.9422 198.77 68.84C197.07 70.62 196.22 73.25 196.22 76.75V96.13H184.82V56.93H195.67V61.52C197.227 59.8391 199.145 58.533 201.28 57.7C203.624 56.7803 206.123 56.3219 208.64 56.35C213.5 56.3767 217.423 57.8333 220.41 60.72Z" fill="#45525B"/>
<path d="M274.64 56.97V96.17H263.82V91.5C262.338 93.1871 260.496 94.5198 258.43 95.4C256.29 96.3099 253.985 96.7695 251.66 96.75C246.513 96.75 242.433 95.2667 239.42 92.3C236.407 89.3333 234.9 84.94 234.9 79.12V56.97H246.26V77.44C246.26 83.76 248.91 86.9167 254.21 86.91C255.429 86.9619 256.644 86.7513 257.774 86.2923C258.904 85.8334 259.923 85.1369 260.76 84.25C262.407 82.4767 263.233 79.8433 263.24 76.35V56.97H274.64Z" fill="#45525B"/>
<path d="M323.29 85.29H288.27V96.18H323.29V85.29Z" fill="#45525B"/>
</svg>
